# xmcd CD database file
#
# Track frame offsets:
#	150
#	5838
#	15945
#	39735
#	78370
#	112313
#	128405
#	149535
#	155578
#	160255
#	184073
#	199803
#
# Disc length: 3033 seconds
#
# Revision: 2
# Processed by: cddbd v1.5.1PL0 Copyright (c) Steve Scherf et al.
# Submitted via: CDex 1.51
#
DISCID=9e0bd70c
DTITLE=Tangerine Dream - The Park Is Mine                      1986
DYEAR=1900
DGENRE=
TTITLE0="The Park Is Mine" -  Main Title
TTITLE1=Fatal Fall/Funeral
TTITLE2=The Letter (Parts 1 and 2)
TTITLE3=Taking The Park (Parts 1 and 2)
TTITLE4=Swatting S.W.A.T.
TTITLE5=Love Theme
TTITLE6=The Helicopter Attack
TTITLE7=Morning
TTITLE8=We're Running Out Of Time
TTITLE9=The Claymore Mine/Stalking
TTITLE10=The Final Confrontation/"The Park Is Yours!"
TTITLE11=Finale/End Credits
EXTD=
EXTT0=
EXTT1=
EXTT2=
EXTT3=
EXTT4=
EXTT5=
EXTT6=
EXTT7=
EXTT8=
EXTT9=
EXTT10=
EXTT11=
PLAYORDER=
